<svg xmlns="http://www.w3.org/2000/svg" xmlns:xlink="http://www.w3.org/1999/xlink" width="250" zoomAndPan="magnify" viewBox="0 0 187.5 112.499997" height="150" preserveAspectRatio="xMidYMid meet" version="1.0"><defs><g/><clipPath id="74620cac8b"><path d="M 0.183594 30.328125 L 186.574219 30.328125 L 186.574219 81.664062 L 0.183594 81.664062 Z M 0.183594 30.328125 " clip-rule="nonzero"/></clipPath><clipPath id="9f3e1ba9dd"><path d="M 5.203125 35.152344 L 93.382812 35.152344 L 93.382812 76.847656 L 5.203125 76.847656 Z M 5.203125 35.152344 " clip-rule="nonzero"/></clipPath></defs><g clip-path="url(#74620cac8b)"><path stroke-linecap="butt" transform="matrix(0.746681, 0, 0, 0.746681, 0.181663, 30.32864)" fill="none" stroke-linejoin="miter" d="M 0.00258607 -0.000689774 L 249.627974 -0.000689774 L 249.627974 68.751445 L 0.00258607 68.751445 Z M 0.00258607 -0.000689774 " stroke="#ffd0d5" stroke-width="2" stroke-opacity="1" stroke-miterlimit="4"/></g><g clip-path="url(#9f3e1ba9dd)"><path fill="#ffd0d5" d="M 5.203125 35.152344 L 93.382812 35.152344 L 93.382812 76.847656 L 5.203125 76.847656 Z M 5.203125 35.152344 " fill-opacity="1" fill-rule="nonzero"/></g><g fill="#ffffff" fill-opacity="1"><g transform="translate(14.712398, 62.497172)"><g><path d="M 8.285156 0.261719 C 12.585938 0.261719 15.488281 -3 15.40625 -7.605469 L 7.804688 -7.605469 L 7.804688 -5.921875 L 13.507812 -5.921875 C 13.148438 -3.28125 11.144531 -1.5 8.324219 -1.5 C 5.183594 -1.5 2.960938 -3.761719 2.960938 -7.003906 C 2.960938 -10.246094 5.164062 -12.507812 8.304688 -12.507812 C 10.464844 -12.507812 12.1875 -11.445312 13.066406 -9.644531 L 14.988281 -9.644531 C 14.085938 -12.40625 11.445312 -14.265625 8.246094 -14.265625 C 4.140625 -14.265625 1.160156 -11.207031 1.160156 -7.003906 C 1.160156 -2.78125 4.164062 0.261719 8.285156 0.261719 Z M 8.285156 0.261719 "/></g></g></g><g fill="#ffffff" fill-opacity="1"><g transform="translate(32.736165, 62.497172)"><g><path d="M 2.042969 0 L 3.800781 0 L 3.800781 -14.007812 L 2.042969 -14.007812 Z M 2.042969 0 "/></g></g></g><g fill="#ffffff" fill-opacity="1"><g transform="translate(40.098065, 62.497172)"><g><path d="M 2.042969 0 L 3.800781 0 L 3.800781 -4.601562 L 6.785156 -4.601562 C 9.945312 -4.601562 11.984375 -6.421875 11.984375 -9.304688 C 11.984375 -12.167969 9.945312 -14.007812 6.785156 -14.007812 L 2.042969 -14.007812 Z M 3.800781 -6.242188 L 3.800781 -12.328125 L 6.742188 -12.328125 C 9.003906 -12.328125 10.183594 -11.285156 10.183594 -9.285156 C 10.183594 -7.285156 9.003906 -6.242188 6.742188 -6.242188 Z M 3.800781 -6.242188 "/></g></g></g><g fill="#ffffff" fill-opacity="1"><g transform="translate(54.401183, 62.497172)"><g><path d="M 11.226562 0 L 12.988281 0 L 12.988281 -14.007812 L 11.226562 -14.007812 L 11.226562 -7.984375 L 3.800781 -7.984375 L 3.800781 -14.007812 L 2.042969 -14.007812 L 2.042969 0 L 3.800781 0 L 3.800781 -6.304688 L 11.226562 -6.304688 Z M 11.226562 0 "/></g></g></g><g fill="#ffffff" fill-opacity="1"><g transform="translate(70.944691, 62.497172)"><g><path d="M 5.601562 0 L 7.324219 0 L 7.324219 -5.042969 L 12.585938 -14.007812 L 10.605469 -14.007812 L 6.484375 -6.921875 L 4.664062 -10.085938 L 2.382812 -14.007812 L 0.339844 -14.007812 L 5.601562 -5.042969 Z M 5.601562 0 "/></g></g></g><g fill="#ffd0d5" fill-opacity="1"><g transform="translate(97.164046, 62.497172)"><g><path d="M 6.503906 0.300781 C 9.984375 0.300781 12.046875 -1.339844 12.046875 -4.101562 C 12.046875 -6.421875 10.546875 -7.785156 7.144531 -8.542969 C 5.34375 -8.945312 4.683594 -9.386719 4.683594 -10.105469 C 4.683594 -10.785156 5.28125 -11.207031 6.222656 -11.207031 C 7.34375 -11.207031 7.984375 -10.625 7.984375 -9.566406 L 11.785156 -9.566406 C 11.785156 -12.445312 9.585938 -14.308594 6.144531 -14.308594 C 2.839844 -14.308594 0.800781 -12.667969 0.800781 -10.023438 C 0.800781 -7.664062 2.339844 -6.203125 5.503906 -5.601562 C 7.203125 -5.261719 8.023438 -4.742188 8.023438 -3.941406 C 8.023438 -3.242188 7.421875 -2.839844 6.441406 -2.839844 C 5.28125 -2.839844 4.601562 -3.460938 4.601562 -4.542969 L 0.699219 -4.542969 C 0.699219 -1.519531 2.863281 0.300781 6.503906 0.300781 Z M 6.503906 0.300781 "/></g></g></g><g fill="#ffd0d5" fill-opacity="1"><g transform="translate(109.946282, 62.497172)"><g><path d="M 1.480469 0 L 11.304688 0 L 11.304688 -3.300781 L 5.484375 -3.300781 L 5.484375 -5.460938 L 10.546875 -5.460938 L 10.546875 -8.703125 L 5.484375 -8.703125 L 5.484375 -10.746094 L 11.085938 -10.746094 L 11.085938 -14.007812 L 1.480469 -14.007812 Z M 1.480469 0 "/></g></g></g><g fill="#ffd0d5" fill-opacity="1"><g transform="translate(122.148413, 62.497172)"><g><path d="M 0.101562 0 L 4.382812 0 L 5.144531 -1.980469 L 9.925781 -1.980469 L 10.683594 0 L 14.988281 0 L 9.542969 -14.007812 L 5.542969 -14.007812 Z M 5.984375 -4.941406 L 7.542969 -9.285156 L 9.105469 -4.941406 Z M 5.984375 -4.941406 "/></g></g></g><g fill="#ffd0d5" fill-opacity="1"><g transform="translate(137.231046, 62.497172)"><g><path d="M 1.480469 0 L 5.523438 0 L 5.523438 -3.980469 L 7.042969 -3.980469 L 9.042969 0 L 13.625 0 L 11.046875 -4.722656 C 12.527344 -5.542969 13.367188 -7.023438 13.367188 -8.984375 C 13.367188 -12.085938 11.265625 -14.007812 7.863281 -14.007812 L 1.480469 -14.007812 Z M 5.441406 -7.203125 L 5.441406 -10.707031 L 7.324219 -10.707031 C 8.605469 -10.707031 9.304688 -10.085938 9.304688 -8.964844 C 9.304688 -7.84375 8.605469 -7.203125 7.324219 -7.203125 Z M 5.441406 -7.203125 "/></g></g></g><g fill="#ffd0d5" fill-opacity="1"><g transform="translate(151.633561, 62.497172)"><g><path d="M 8.023438 0.300781 C 11.886719 0.300781 14.808594 -2.042969 15.40625 -5.601562 L 11.304688 -5.601562 C 10.804688 -4.28125 9.625 -3.441406 8.105469 -3.441406 C 6.144531 -3.441406 4.78125 -4.902344 4.78125 -7.003906 C 4.78125 -9.125 6.164062 -10.566406 8.144531 -10.566406 C 9.605469 -10.566406 10.824219 -9.746094 11.246094 -8.484375 L 15.328125 -8.484375 C 14.609375 -12.027344 11.726562 -14.308594 7.984375 -14.308594 C 3.660156 -14.308594 0.679688 -11.324219 0.679688 -7.003906 C 0.679688 -2.679688 3.660156 0.300781 8.023438 0.300781 Z M 8.023438 0.300781 "/></g></g></g><g fill="#ffd0d5" fill-opacity="1"><g transform="translate(167.676362, 62.497172)"><g><path d="M 9.84375 0 L 13.886719 0 L 13.886719 -14.007812 L 9.84375 -14.007812 L 9.84375 -8.984375 L 5.523438 -8.984375 L 5.523438 -14.007812 L 1.480469 -14.007812 L 1.480469 0 L 5.523438 0 L 5.523438 -5.261719 L 9.84375 -5.261719 Z M 9.84375 0 "/></g></g></g></svg>